<svg width="35" height="40" viewBox="0 0 35 40" fill="none" xmlns="http://www.w3.org/2000/svg">
<path d="M30.4 0.700012H5.40002C2.90002 0.700012 0.900024 2.70001 0.900024 5.20001V35.2C0.900024 37.7 2.90002 39.7 5.40002 39.7H30.3C32.8 39.7 34.8 37.7 34.8 35.2V5.20001C34.8 2.70001 32.8 0.700012 30.4 0.700012ZM32.1 35.2C32.1 36.2 31.3 37 30.3 37H5.40002C4.40002 37 3.60002 36.2 3.60002 35.2V5.20001C3.60002 4.20001 4.40002 3.40001 5.40002 3.40001H30.3C31.3 3.40001 32.1 4.20001 32.1 5.20001V35.2Z" fill="black"/>
<path d="M24.9 11.9L23.6 11.7L23 10.5C22.8 10.1 22.4 9.90002 22 9.90002C21.6 9.90002 21.2 10.1 21 10.5L20.4 11.7L19.1 11.9C18.7 12 18.3 12.2 18.2 12.6C18.1 13 18.2 13.4 18.5 13.7L19.4 14.6L19.2 15.9C19.1 16.3 19.3 16.7 19.6 17C19.9 17.2 20.4 17.3 20.8 17.1L22 16.5L23.2 17.1C23.4 17.2 23.5 17.2 23.7 17.2C23.9 17.2 24.1 17.1 24.3 17C24.6 16.8 24.8 16.3 24.7 15.9L24.5 14.6L25.4 13.7C25.7 13.4 25.8 13 25.7 12.6C25.6 12.2 25.3 11.9 24.9 11.9ZM23.4 13.7C23.1 14 23 14.3 23.1 14.7L23.2 15.4L22.6 15C22.4 14.9 22.3 14.9 22.1 14.9C21.9 14.9 21.8 14.9 21.6 15L21 15.3L21.1 14.6C21.2 14.2 21 13.9 20.8 13.6L20.3 13.1L21 13C21.4 12.9 21.7 12.7 21.8 12.4L22.1 11.8L22.4 12.4C22.6 12.7 22.9 12.9 23.2 13L23.9 13.1L23.4 13.7Z" fill="black"/>
<path d="M29 11.2L28.6 10.9C28.4 10.8 28.3 10.6 28.4 10.3C28.6 9.4 28.3 8.5 27.6 7.9C27 7.2 26 7 25.1 7.4C24.9 7.5 24.6 7.4 24.5 7.2L24.3 6.8C23.9 6 23 5.5 22.1 5.5C21.2 5.5 20.4 6 19.9 6.8L19.8 7C19.7 7.2 19.4 7.3 19.2 7.2L18.9 7.1C18 6.8 17.1 7.1 16.5 7.7C15.8 8.3 15.6 9.2 15.8 10.1V10.3C15.8 10.5 15.8 10.7 15.6 10.8L15 11.2C14.3 11.7 13.9 12.5 13.9 13.3C13.9 14.1 14.4 14.9 15.1 15.4L15.6 15.7C15.8 15.8 15.9 16 15.8 16.2L15.7 16.8C15.5 17.6 15.8 18.5 16.4 19.1C17 19.7 17.8 19.9 18.5 19.8V24H6.40002V26.7H18.5V27.2C18.5 27.8 18.9 28.4 19.4 28.7C19.6 28.8 19.9 28.9 20.1 28.9C20.5 28.9 20.8 28.8 21.1 28.5L22 27.8L22.9 28.5C23.4 28.9 24.1 29 24.6 28.7C25.2 28.4 25.5 27.9 25.5 27.2V22.5C25.5 21.9 25.1 21.5 24.5 21.5C23.9 21.5 23.5 21.9 23.5 22.5V26.5L21.9 25.2L20.3 26.5V21C20.7 21.4 21.3 21.6 21.9 21.6C22.7 21.6 23.5 21.2 23.9 20.5L24.3 19.9C24.4 19.7 24.6 19.7 24.8 19.7L25.4 19.8C26.2 19.9 27.1 19.7 27.7 19.1C28.3 18.5 28.5 17.6 28.3 16.8L28.2 16.2C28.2 16 28.2 15.8 28.4 15.7L28.8 15.5C29.5 15 30 14.3 30 13.4C30.2 12.4 29.8 11.6 29 11.2ZM28 13.7L27.6 13.9C26.7 14.5 26.2 15.5 26.5 16.6L26.6 17.2C26.7 17.4 26.5 17.6 26.5 17.7C26.4 17.8 26.3 17.9 26 17.8L25.4 17.7C24.4 17.5 23.4 17.9 22.9 18.8L22.5 19.4C22.4 19.6 22.2 19.6 22.1 19.6C22 19.6 21.8 19.6 21.7 19.4L21.2 18.7C20.7 18 20 17.7 19.2 17.7C19 17.7 18.8 17.7 18.7 17.8L18.4 17.9C18.2 18 18 17.8 17.9 17.8C17.8 17.7 17.7 17.6 17.8 17.3L17.9 16.7C18.1 15.7 17.7 14.6 16.8 14L16.3 13.7C16 13.5 16 13.4 16 13.3C16 13.2 16 13 16.2 12.9L16.8 12.5C17.6 11.9 18 10.9 17.8 9.9V9.7C17.7 9.4 17.9 9.3 17.9 9.2C18 9.1 18.1 9 18.4 9.1L18.7 9.2C19.8 9.5 21 9.1 21.6 8L21.7 7.8C21.8 7.6 22.1 7.5 22.1 7.5C22.2 7.5 22.4 7.5 22.5 7.8L22.7 8.2C23.3 9.3 24.6 9.8 25.7 9.3C26 9.2 26.1 9.3 26.2 9.4C26.3 9.5 26.4 9.6 26.3 10C26.1 11 26.5 12.1 27.4 12.7L27.8 13C28 13.1 28 13.3 28 13.4C28.2 13.4 28.2 13.6 28 13.7Z" fill="black"/>
<path d="M29.8 30.1H6.10004V32.8H29.8V30.1Z" fill="black"/>
</svg>
