<svg width="37" height="33" viewBox="0 0 37 33" fill="none" xmlns="http://www.w3.org/2000/svg">
<path d="M15.3 3.09998C14.7 1.39998 13.1 0.0999756 11.2 0.0999756C9.29996 0.0999756 7.69996 1.39998 7.09996 3.09998H0.899963V5.79998H7.09996C7.69996 7.49998 9.29996 8.79998 11.2 8.79998C13.1 8.79998 14.7 7.49998 15.3 5.79998H36.5V3.09998H15.3ZM11.1 6.09998C10.2 6.09998 9.39996 5.39998 9.39996 4.39998C9.39996 3.49998 10.1 2.69998 11.1 2.69998C12.1 2.69998 12.8 3.39998 12.8 4.39998C12.8 5.39998 12 6.09998 11.1 6.09998Z" fill="black"/>
<path d="M28.7 12.1C26.8 12.1 25.2 13.4 24.6 15.1H0.799988V17.8H24.6C25.2 19.5 26.8 20.8 28.7 20.8C30.6 20.8 32.3 19.5 32.8 17.8H36.4V15.1H32.8C32.3 13.3 30.7 12.1 28.7 12.1ZM28.7 18.1C27.8 18.1 27 17.4 27 16.4C27 15.5 27.7 14.7 28.7 14.7C29.6 14.7 30.4 15.4 30.4 16.4C30.4 17.3 29.7 18.1 28.7 18.1Z" fill="black"/>
<path d="M16.3 24C14.4 24 12.8 25.3 12.2 27H0.799988V29.7H12.2C12.8 31.4 14.4 32.7 16.3 32.7C18.2 32.7 19.8 31.4 20.4 29.7H36.5V27H20.4C19.8 25.3 18.2 24 16.3 24ZM16.3 30C15.4 30 14.6 29.3 14.6 28.3C14.6 27.3 15.3 26.6 16.3 26.6C17.3 26.6 18 27.3 18 28.3C18 29.3 17.2 30 16.3 30Z" fill="black"/>
</svg>
