<svg width="37" height="36" viewBox="0 0 37 36" fill="none" xmlns="http://www.w3.org/2000/svg">
<path d="M31.9 2.8H30.2V0H27.4V2.8H8.90001V0H6.10001V2.8H4.40001C2.10001 2.8 0.200012 4.7 0.200012 7V31.7C0.200012 34 2.10001 35.9 4.40001 35.9H31.9C34.2 35.9 36.1 34 36.1 31.7V7C36.1 4.7 34.2 2.8 31.9 2.8ZM33.3 31.7C33.3 32.5 32.7 33.1 31.9 33.1H4.50001C3.70001 33.1 3.10001 32.5 3.10001 31.7V13.2H33.4V31.7H33.3ZM33.3 10.4H3.00001V7C3.00001 6.2 3.60001 5.6 4.40001 5.6H6.10001V8.4H8.90001V5.6H27.4V8.4H30.2V5.6H31.9C32.7 5.6 33.3 6.2 33.3 7V10.4Z" fill="black"/>
</svg>
