<svg width="36" height="37" viewBox="0 0 36 37" fill="none" xmlns="http://www.w3.org/2000/svg">
<path d="M2.4 13.8C2.6 14.5 2.8 15.2 3.1 15.8L2 17C1.6 17.4 1.6 18 2 18.4L3.6 20.2C4 20.6 4.6 20.7 5 20.4L6.3 19.5C6.9 19.9 7.6 20.3 8.3 20.5L8.4 22.1C8.4 22.6 8.8 23.1 9.4 23.1L11.8 23.3C12.3 23.3 12.8 23 12.9 22.4L13.2 20.8C14 20.7 14.7 20.4 15.5 20.1L16.7 21.1C17.1 21.5 17.7 21.5 18.1 21.1L19.9 19.5C20.3 19.2 20.4 18.6 20.1 18.1L19.2 17C19.6 16.3 20 15.6 20.2 14.9L21.7 14.8C22.2 14.8 22.7 14.4 22.7 13.8L22.9 11.4C22.9 10.9 22.6 10.4 22 10.3L20.6 10C20.5 9.2 20.2 8.5 19.9 7.8L20.9 6.7C21.3 6.3 21.3 5.7 20.9 5.3L19.3 3.5C19 3.1 18.4 3 17.9 3.3L16.8 4.1C16 3.7 15.3 3.3 14.5 3L14.4 1.6C14.4 1.1 14 0.6 13.4 0.6L11 0.5C10.5 0.5 10 0.8 9.9 1.4L9.6 2.7C8.8 2.9 8 3.2 7.3 3.6L6.2 2.6C5.8 2.2 5.2 2.2 4.8 2.6L3 4.2C2.6 4.5 2.5 5.1 2.8 5.6L3.7 6.9C3.3 7.6 2.9 8.3 2.7 9H1.2C0.7 9 0.2 9.4 0.2 10L0 12.4C0 12.9 0.3 13.4 0.9 13.5L2.4 13.8ZM11.7 7.8C13.9 7.9 15.6 9.9 15.5 12.1C15.4 14.3 13.4 16 11.2 15.9C9 15.8 7.3 13.8 7.4 11.6C7.6 9.3 9.5 7.6 11.7 7.8Z" fill="black"/>
<path d="M7.80001 30.6C7.90001 30.9 8.00001 31.2 8.10001 31.5L7.60001 32C7.40001 32.2 7.40001 32.4 7.60001 32.6L8.30001 33.4C8.50001 33.6 8.70001 33.6 8.90001 33.5L9.50001 33.1C9.80001 33.3 10.1 33.4 10.4 33.5V34.2C10.4 34.4 10.6 34.6 10.8 34.6L11.9 34.7C12.1 34.7 12.3 34.6 12.4 34.3L12.5 33.6C12.8 33.5 13.2 33.4 13.5 33.3L14 33.8C14.2 34 14.4 34 14.6 33.8L15.4 33.1C15.6 32.9 15.6 32.7 15.5 32.5L15.1 31.9C15.3 31.6 15.4 31.3 15.6 31H16.2C16.4 31 16.6 30.8 16.6 30.6L16.7 29.5C16.7 29.3 16.6 29.1 16.3 29L15.7 28.9C15.6 28.6 15.5 28.2 15.4 27.9L15.8 27.4C16 27.2 16 27 15.8 26.8L15.1 26C14.9 25.8 14.7 25.8 14.5 25.9L14 26.3C13.7 26.1 13.4 25.9 13 25.8V25.2C13 25 12.8 24.8 12.6 24.8L11.5 24.7C11.3 24.7 11.1 24.8 11 25.1L10.9 25.7C10.5 25.8 10.2 25.9 9.90001 26.1L9.40001 25.7C9.20001 25.5 9.00001 25.5 8.80001 25.7L8.00001 26.4C7.80001 26.6 7.80001 26.8 7.90001 27L8.30001 27.5C8.10001 27.8 8.00001 28.1 7.90001 28.4H7.20001C7.00001 28.4 6.80001 28.6 6.80001 28.8L6.70001 30C6.70001 30.2 6.80001 30.4 7.10001 30.5L7.80001 30.6ZM11.8 27.9C12.8 28 13.5 28.8 13.5 29.8C13.5 30.8 12.6 31.5 11.6 31.5C10.6 31.4 9.90001 30.6 9.90001 29.6C9.90001 28.6 10.9 27.9 11.8 27.9Z" fill="black"/>
<path d="M20.7 31.8C21.1 32.2 21.5 32.6 22 33L21.7 34.3C21.6 34.7 21.8 35.1 22.2 35.3L24.1 36C24.5 36.2 25 36 25.2 35.6L25.8 34.4C26.4 34.5 27 34.4 27.6 34.4L28.3 35.5C28.5 35.9 29 36 29.4 35.8L31.2 35C31.6 34.8 31.8 34.4 31.7 34L31.3 32.8C31.8 32.4 32.3 31.9 32.6 31.4L33.8 31.7C34.2 31.8 34.6 31.6 34.8 31.2L35.5 29.3C35.7 28.9 35.5 28.4 35.1 28.2L34 27.6C34.1 27 34.1 26.3 34 25.7L35 25.1C35.4 24.9 35.5 24.4 35.3 24L34.5 22.2C34.3 21.8 33.9 21.6 33.5 21.7L32.4 22.1C32 21.6 31.5 21.2 31 20.8L31.3 19.7C31.4 19.3 31.2 18.9 30.8 18.7L28.8 18C28.4 17.8 27.9 18 27.7 18.4L27.2 19.4C26.5 19.3 25.9 19.3 25.2 19.4L24.6 18.4C24.4 18 23.9 17.9 23.5 18.1L21.7 18.9C21.3 19.1 21.1 19.5 21.2 19.9L21.5 21C21 21.4 20.5 21.9 20.1 22.5L19 22.2C18.6 22.1 18.2 22.3 18 22.7L17.3 24.6C17.1 25 17.3 25.5 17.7 25.7L18.8 26.3C18.7 26.9 18.8 27.6 18.9 28.2L18 28.8C17.6 29 17.5 29.5 17.7 29.9L18.5 31.7C18.7 32.1 19.1 32.3 19.5 32.2L20.7 31.8ZM25.1 23.9C26.8 23.2 28.7 23.9 29.5 25.6C30.2 27.3 29.5 29.2 27.8 30C26.1 30.7 24.2 30 23.4 28.3C22.7 26.6 23.4 24.6 25.1 23.9Z" fill="black"/>
<path d="M25.8 12.5C25.9 12.8 26 13.1 26.1 13.4L25.6 13.9C25.4 14.1 25.4 14.3 25.6 14.5L26.3 15.3C26.5 15.5 26.7 15.5 26.9 15.4L27.5 15C27.8 15.2 28.1 15.3 28.4 15.4V16.1C28.4 16.3 28.6 16.5 28.8 16.5L29.9 16.6C30.1 16.6 30.3 16.5 30.4 16.2L30.5 15.5C30.8 15.4 31.2 15.3 31.5 15.2L32 15.7C32.2 15.9 32.4 15.9 32.6 15.7L33.4 15C33.6 14.8 33.6 14.6 33.5 14.4L33.1 13.8C33.3 13.5 33.4 13.2 33.6 12.9H34.2C34.4 12.9 34.6 12.7 34.6 12.5L34.7 11.4C34.7 11.2 34.6 11 34.3 10.9L33.7 10.8C33.6 10.5 33.5 10.1 33.4 9.80001L33.8 9.30001C34 9.20001 34 9.00001 33.8 8.80001L33.1 8.00001C32.9 7.80001 32.7 7.80001 32.5 7.90001L32 8.30001C31.7 8.10001 31.4 7.90001 31 7.80001V7.20001C31 7.00001 30.8 6.80001 30.6 6.80001L29.5 6.70001C29.3 6.70001 29.1 6.80001 29 7.10001L28.9 7.70001C28.5 7.80001 28.2 7.90001 27.9 8.10001L27.4 7.70001C27.2 7.50001 27 7.50001 26.8 7.70001L26 8.30001C25.8 8.50001 25.8 8.70001 25.9 8.90001L26.3 9.40001C26.1 9.70001 26 10 25.9 10.3H25.2C25 10.3 24.8 10.5 24.8 10.7L24.7 11.8C24.7 12 24.8 12.2 25.1 12.3L25.8 12.5ZM29.9 9.90001C30.9 10 31.6 10.8 31.6 11.8C31.5 12.8 30.7 13.5 29.7 13.5C28.7 13.4 28 12.6 28 11.6C28 10.5 28.9 9.80001 29.9 9.90001Z" fill="black"/>
</svg>
